<?xml version="1.0" encoding="utf-8"?>
<!-- Generator: Adobe Illustrator 21.0.2, SVG Export Plug-In . SVG Version: 6.00 Build 0)  -->
<svg version="1.1" id="Layer_1" xmlns="http://www.w3.org/2000/svg" xmlns:xlink="http://www.w3.org/1999/xlink" x="0px" y="0px"
	 viewBox="0 0 127 93" style="enable-background:new 0 0 127 93;" xml:space="preserve">
<style type="text/css">
	.st0{fill:#B6B5C9;}
	.st1{fill:#9E9DB7;}
	.st2{fill:#9E005D;}
	.st3{fill:#DCCED6;}
</style>
<g>
	<g>
		<path class="st0" d="M23.4,27.4v1.4c-3.3,0.9-5.4,5.7-6.2,14.4V48c0,10.5,3.9,16.7,11.7,18.6v0.7L25.5,70h-3.4
			c-8.8,0-14.5-6-17.2-17.9v-5.5c0-8.4,6-14.8,17.9-19.2H23.4z M47.5,2v57c3.1,11.9,4.9,16.3,12.8,16.3h0.7c2.6-0.1,3.6-4.5,5.7-9.3
			l0.7-0.7h2.1c3.5,0,7.1,6.3,7.7,10.9c0,3.7-2.1,5.5-6.2,5.5h-4.1c-10.1,0-17.9-4.6-23.4-13.7l-8.9,1.4l-2.1-4.1l1.4-4.1V34.3
			c-0.8-4.1-2.4-6.2-4.8-6.2v-1.4c3.2,0,4.8-1.4,4.8-4.1v-11c0-2.6-0.9-5.1-2.7-7.6C36.5,2.7,43.8,2,47.5,2z"/>
	</g>
	<g>
		<path class="st1" d="M41.1,3.6c1.9,0,3.8,1.4,5.7,4.2c-2.4,2.8-3.5,5.8-3.5,9.1c2.3,7,7,10.6,14.1,10.6l8.4-0.7l2.1,5.6l-1.4,2.1
			v28.2l1.4,6.3H53.1v-0.7c1.4-2.4,2.1-4.7,2.1-7V36.7c0-5-4-9-12-12c-6.1-5.9-9.1-10.8-9.1-14.8C35.1,5.7,37.4,3.6,41.1,3.6z
			 M78.2,26.1h4.9c2.8,0,5.8,2.1,9.1,6.3H93L92.3,36v26.8c0,3.6,3.3,7.8,9.8,12.6c2.4,4,3.5,7,3.5,9.2c-1,4.2-3.3,6.3-7,6.3
			c-1.9,0-3.8-1.4-5.7-4.2c2.4-2.8,3.5-5.8,3.5-9.1c0-2.9-2.1-5.7-6.3-8.4H78.9v-0.7c1.4-1.6,2.1-4.5,2.1-8.4V42.3
			c0-8.4-2.8-12.6-8.4-12.6v-1.4L78.2,26.1z M105.8,26.1h4.2c5,0,8,3.3,9.1,9.8v25.3l2.1,7.7h-14.7l1.4-6.3V39.5
			c-0.5-6.6-3.6-9.8-9.1-9.8v-1.4L105.8,26.1z"/>
	</g>
	<g>
		<path class="st2" d="M21.4,27.4v1.4c-3.3,0.9-5.4,5.7-6.2,14.4V48c0,10.5,3.9,16.7,11.7,18.6v0.7L23.5,70H20
			c-8.8,0-14.5-6-17.2-17.9v-5.5c0-8.4,6-14.8,17.9-19.2H21.4z M45.5,2v57c3.1,11.9,4.9,16.3,12.8,16.3h0.7c2.6-0.1,3.6-4.5,5.7-9.3
			l0.7-0.7h2.1c3.5,0,7.1,6.3,7.7,10.9c0,3.7-2.1,5.5-6.2,5.5h-4.1c-10.1,0-17.9-4.6-23.4-13.7l-8.9,1.4l-2.1-4.1l1.4-4.1V34.3
			c-0.8-4.1-2.4-6.2-4.8-6.2v-1.4c3.2,0,4.8-1.4,4.8-4.1v-11C31.8,9,30.9,6.4,29,4C34.5,2.7,41.8,2,45.5,2z"/>
	</g>
	<g>
		<path class="st3" d="M39.1,3.6c1.9,0,3.8,1.4,5.7,4.2c-2.4,2.8-3.5,5.8-3.5,9.1c2.3,7,7,10.6,14.1,10.6l8.4-0.7l2.1,5.6l-1.4,2.1
			v28.2l1.4,6.3H51.1v-0.7c1.4-2.4,2.1-4.7,2.1-7V36.7c0-5-4-9-12-12c-6.1-5.9-9.1-10.8-9.1-14.8C33.1,5.7,35.4,3.6,39.1,3.6z
			 M76.2,26.1h4.9c2.8,0,5.8,2.1,9.1,6.3H91L90.3,36v26.8c0,3.6,3.3,7.8,9.8,12.6c2.4,4,3.5,7,3.5,9.2c-1,4.2-3.3,6.3-7,6.3
			c-1.9,0-3.8-1.4-5.7-4.2c2.4-2.8,3.5-5.8,3.5-9.1c0-2.9-2.1-5.7-6.3-8.4H76.9v-0.7c1.4-1.6,2.1-4.5,2.1-8.4V42.3
			c0-8.4-2.8-12.6-8.4-12.6v-1.4L76.2,26.1z M103.8,26.1h4.2c5,0,8,3.3,9.1,9.8v25.3l2.1,7.7h-14.7l1.4-6.3V39.5
			c-0.5-6.6-3.6-9.8-9.1-9.8v-1.4L103.8,26.1z"/>
	</g>
</g>
</svg>
